
<svg xmlns="http://www.w3.org/2000/svg" xmlns:xlink="http://www.w3.org/1999/xlink" width="500" zoomAndPan="magnify" viewBox="0 0 375 374.999991" height="500" preserveAspectRatio="xMidYMid meet" version="1.0"><defs><g/><clipPath id="7005cad458"><path d="M 66.246094 199.3125 L 132.949219 199.3125 L 132.949219 313.308594 L 66.246094 313.308594 Z M 66.246094 199.3125 " clip-rule="nonzero"/></clipPath><clipPath id="afc2ed820e"><path d="M 66.246094 50.277344 L 132.949219 50.277344 L 132.949219 116.976562 L 66.246094 116.976562 Z M 66.246094 50.277344 " clip-rule="nonzero"/></clipPath><clipPath id="d8fb4218d5"><path d="M 99.597656 50.277344 C 81.179688 50.277344 66.246094 65.207031 66.246094 83.625 C 66.246094 102.046875 81.179688 116.976562 99.597656 116.976562 C 118.015625 116.976562 132.949219 102.046875 132.949219 83.625 C 132.949219 65.207031 118.015625 50.277344 99.597656 50.277344 Z M 99.597656 50.277344 " clip-rule="nonzero"/></clipPath><clipPath id="cac76119bc"><path d="M 238.835938 255.476562 L 305.539062 255.476562 L 305.539062 324.957031 L 238.835938 324.957031 Z M 238.835938 255.476562 " clip-rule="nonzero"/></clipPath><clipPath id="2fb3400e78"><path d="M 182.660156 116.976562 L 295 116.976562 L 295 175.898438 L 182.660156 175.898438 Z M 182.660156 116.976562 " clip-rule="nonzero"/></clipPath><clipPath id="9f9ff9863e"><path d="M 190.675781 129.496094 L 219.671875 129.496094 L 219.671875 158.492188 L 190.675781 158.492188 Z M 190.675781 129.496094 " clip-rule="nonzero"/></clipPath><clipPath id="b6d4c228bb"><path d="M 205.175781 129.496094 C 197.167969 129.496094 190.675781 135.988281 190.675781 143.992188 C 190.675781 152 197.167969 158.492188 205.175781 158.492188 C 213.179688 158.492188 219.671875 152 219.671875 143.992188 C 219.671875 135.988281 213.179688 129.496094 205.175781 129.496094 Z M 205.175781 129.496094 " clip-rule="nonzero"/></clipPath><clipPath id="ed12379319"><path d="M 257.402344 129.496094 L 286.398438 129.496094 L 286.398438 158.492188 L 257.402344 158.492188 Z M 257.402344 129.496094 " clip-rule="nonzero"/></clipPath><clipPath id="5eb3cf4d23"><path d="M 271.898438 129.496094 C 263.894531 129.496094 257.402344 135.988281 257.402344 143.992188 C 257.402344 152 263.894531 158.492188 271.898438 158.492188 C 279.90625 158.492188 286.398438 152 286.398438 143.992188 C 286.398438 135.988281 279.90625 129.496094 271.898438 129.496094 Z M 271.898438 129.496094 " clip-rule="nonzero"/></clipPath><clipPath id="ef70a0c04c"><path d="M 224.339844 87.980469 L 253.335938 87.980469 L 253.335938 116.976562 L 224.339844 116.976562 Z M 224.339844 87.980469 " clip-rule="nonzero"/></clipPath><clipPath id="e65d97ade2"><path d="M 238.835938 87.980469 C 230.832031 87.980469 224.339844 94.472656 224.339844 102.480469 C 224.339844 110.484375 230.832031 116.976562 238.835938 116.976562 C 246.84375 116.976562 253.335938 110.484375 253.335938 102.480469 C 253.335938 94.472656 246.84375 87.980469 238.835938 87.980469 Z M 238.835938 87.980469 " clip-rule="nonzero"/></clipPath></defs><g clip-path="url(#7005cad458)"><path fill="#ffde59" d="M 66.246094 199.3125 L 132.949219 199.3125 L 132.949219 313.429688 L 66.246094 313.429688 Z M 66.246094 199.3125 " fill-opacity="1" fill-rule="nonzero"/></g><g clip-path="url(#afc2ed820e)"><g clip-path="url(#d8fb4218d5)"><path fill="#df3821" d="M 66.246094 50.277344 L 132.949219 50.277344 L 132.949219 116.976562 L 66.246094 116.976562 Z M 66.246094 50.277344 " fill-opacity="1" fill-rule="nonzero"/></g></g><g clip-path="url(#cac76119bc)"><path fill="#7ed957" d="M 238.835938 255.476562 L 305.539062 255.476562 L 305.539062 325.042969 L 238.835938 325.042969 Z M 238.835938 255.476562 " fill-opacity="1" fill-rule="nonzero"/></g><g fill="#000000" fill-opacity="1"><g transform="translate(88.291873, 155.986966)"><g><path d="M 21.375 41.015625 C 17.226562 41.015625 13.472656 40.691406 10.109375 40.046875 C 6.753906 39.398438 4.023438 38.550781 1.921875 37.5 L 5.78125 17.875 L 7.359375 17.34375 C 8.816406 18.101562 10.625 18.71875 12.78125 19.1875 C 14.945312 19.65625 17.171875 19.890625 19.453125 19.890625 C 23.367188 19.890625 26.625 19.378906 29.21875 18.359375 C 31.820312 17.335938 34.023438 15.640625 35.828125 13.265625 C 37.640625 10.898438 39.25 7.617188 40.65625 3.421875 L 2.109375 -96.65625 L 27.515625 -96.65625 L 51.515625 -29.4375 L 53.625 -29.4375 L 77.015625 -96.65625 L 101.734375 -96.65625 L 62.90625 6.046875 C 59.8125 14.335938 56.410156 21.007812 52.703125 26.0625 C 48.992188 31.113281 44.613281 34.867188 39.5625 37.328125 C 34.507812 39.785156 28.445312 41.015625 21.375 41.015625 Z M 21.375 41.015625 "/></g></g></g><g fill="#000000" fill-opacity="1"><g transform="translate(88.291873, 274.400084)"><g><path d="M 13.9375 0 L 13.9375 -96.65625 L 37.234375 -96.65625 L 37.234375 -83.6875 L 39.078125 -83.328125 C 42.234375 -88.523438 45.925781 -92.347656 50.15625 -94.796875 C 54.394531 -97.253906 59.816406 -98.484375 66.421875 -98.484375 C 73.722656 -98.484375 79.59375 -97.035156 84.03125 -94.140625 C 88.46875 -91.253906 91.707031 -87.035156 93.75 -81.484375 L 95.59375 -81.484375 C 98.570312 -87.273438 102.410156 -91.554688 107.109375 -94.328125 C 111.816406 -97.097656 117.675781 -98.484375 124.6875 -98.484375 C 144.726562 -98.484375 154.75 -87.328125 154.75 -65.015625 L 154.75 0 L 130.46875 0 L 130.46875 -61.953125 C 130.46875 -67.617188 129.359375 -71.707031 127.140625 -74.21875 C 124.921875 -76.726562 121.359375 -77.984375 116.453125 -77.984375 C 103.128906 -77.984375 96.46875 -69.078125 96.46875 -51.265625 L 96.46875 0 L 72.203125 0 L 72.203125 -61.953125 C 72.203125 -67.617188 71.078125 -71.707031 68.828125 -74.21875 C 66.578125 -76.726562 63 -77.984375 58.09375 -77.984375 C 51.84375 -77.984375 46.960938 -75.894531 43.453125 -71.71875 C 39.953125 -67.539062 38.203125 -60.894531 38.203125 -51.78125 L 38.203125 0 Z M 13.9375 0 "/></g></g></g><g fill="#000000" fill-opacity="1"><g transform="translate(245.59482, 274.400084)"><g><path d="M 26.03125 -108.21875 C 21.644531 -108.21875 18.078125 -109.546875 15.328125 -112.203125 C 12.585938 -114.859375 11.21875 -118.289062 11.21875 -122.5 C 11.21875 -126.644531 12.585938 -130.046875 15.328125 -132.703125 C 18.078125 -135.359375 21.644531 -136.6875 26.03125 -136.6875 C 28.945312 -136.6875 31.539062 -136.070312 33.8125 -134.84375 C 36.09375 -133.625 37.863281 -131.945312 39.125 -129.8125 C 40.382812 -127.675781 41.015625 -125.238281 41.015625 -122.5 C 41.015625 -119.75 40.382812 -117.289062 39.125 -115.125 C 37.863281 -112.96875 36.09375 -111.273438 33.8125 -110.046875 C 31.539062 -108.828125 28.945312 -108.21875 26.03125 -108.21875 Z M 13.9375 0 L 13.9375 -96.65625 L 38.203125 -96.65625 L 38.203125 0 Z M 13.9375 0 "/></g></g></g><g fill="#000000" fill-opacity="1"><g transform="translate(182.637591, 152.382443)"><g><path d="M 56.171875 1.84375 C 46.703125 1.84375 38.390625 -0.0976562 31.234375 -3.984375 C 24.078125 -7.867188 18.523438 -13.5625 14.578125 -21.0625 C 10.640625 -28.570312 8.671875 -37.644531 8.671875 -48.28125 C 8.671875 -58.914062 10.640625 -68 14.578125 -75.53125 C 18.523438 -83.0625 24.078125 -88.769531 31.234375 -92.65625 C 38.390625 -96.539062 46.703125 -98.484375 56.171875 -98.484375 C 65.628906 -98.484375 73.9375 -96.539062 81.09375 -92.65625 C 88.25 -88.769531 93.8125 -83.0625 97.78125 -75.53125 C 101.757812 -68 103.75 -58.914062 103.75 -48.28125 C 103.75 -37.644531 101.757812 -28.570312 97.78125 -21.0625 C 93.8125 -13.5625 88.25 -7.867188 81.09375 -3.984375 C 73.9375 -0.0976562 65.628906 1.84375 56.171875 1.84375 Z M 56.171875 -18.75 C 71.179688 -18.75 78.6875 -28.59375 78.6875 -48.28125 C 78.6875 -58.5 76.757812 -65.988281 72.90625 -70.75 C 69.050781 -75.507812 63.472656 -77.890625 56.171875 -77.890625 C 41.148438 -77.890625 33.640625 -68.019531 33.640625 -48.28125 C 33.640625 -28.59375 41.148438 -18.75 56.171875 -18.75 Z M 56.171875 -18.75 "/></g></g></g><g clip-path="url(#2fb3400e78)"><path fill="#ffffff" d="M 182.660156 116.976562 L 294.980469 116.976562 L 294.980469 175.898438 L 182.660156 175.898438 Z M 182.660156 116.976562 " fill-opacity="1" fill-rule="nonzero"/></g><g clip-path="url(#9f9ff9863e)"><g clip-path="url(#b6d4c228bb)"><path fill="#5271ff" d="M 190.675781 129.496094 L 219.671875 129.496094 L 219.671875 158.492188 L 190.675781 158.492188 Z M 190.675781 129.496094 " fill-opacity="1" fill-rule="nonzero"/></g></g><g clip-path="url(#ed12379319)"><g clip-path="url(#5eb3cf4d23)"><path fill="#5271ff" d="M 257.402344 129.496094 L 286.398438 129.496094 L 286.398438 158.492188 L 257.402344 158.492188 Z M 257.402344 129.496094 " fill-opacity="1" fill-rule="nonzero"/></g></g><g clip-path="url(#ef70a0c04c)"><g clip-path="url(#e65d97ade2)"><path fill="#ffde59" d="M 224.339844 87.980469 L 253.335938 87.980469 L 253.335938 116.976562 L 224.339844 116.976562 Z M 224.339844 87.980469 " fill-opacity="1" fill-rule="nonzero"/></g></g></svg>